<svg xmlns="http://www.w3.org/2000/svg" width="400pt" height="400pt" version="1.1" viewBox="0 0 400 400"><g fill="none" stroke="#00f"><line x1="1" x2="1" y1="1" y2="399"/><line x1="1" x2="399" y1="399" y2="399"/><line x1="399" x2="399" y1="399" y2="1"/><line x1="399" x2="1" y1="1" y2="1"/></g><g fill="#fff" stroke="#000"><circle cx="142" cy="283" r="2"/><circle cx="366" cy="13" r="2"/><circle cx="4" cy="312" r="2"/><circle cx="26" cy="41" r="2"/><circle cx="283" cy="12" r="2"/><circle cx="347" cy="97" r="2"/><circle cx="4" cy="371" r="2"/><circle cx="110" cy="4" r="2"/><circle cx="290" cy="304" r="2"/><circle cx="247" cy="275" r="2"/><circle cx="394" cy="4" r="2"/><circle cx="383" cy="127" r="2"/><circle cx="14" cy="124" r="2"/><circle cx="27" cy="275" r="2"/><circle cx="160" cy="100" r="2"/><circle cx="5" cy="42" r="2"/><circle cx="22" cy="301" r="2"/><circle cx="357" cy="304" r="2"/><circle cx="102" cy="12" r="2"/><circle cx="161" cy="30" r="2"/><circle cx="396" cy="12" r="2"/><circle cx="382" cy="4" r="2"/><circle cx="262" cy="39" r="2"/><circle cx="115" cy="89" r="2"/><circle cx="23" cy="89" r="2"/><circle cx="284" cy="39" r="2"/><circle cx="29" cy="304" r="2"/><circle cx="8" cy="39" r="2"/><circle cx="100" cy="100" r="2"/><circle cx="7" cy="302" r="2"/><circle cx="65" cy="5" r="2"/><circle cx="27" cy="4" r="2"/><circle cx="28" cy="6" r="2"/><circle cx="14" cy="116" r="2"/><circle cx="155" cy="33" r="2"/><circle cx="60" cy="99" r="2"/><circle cx="117" cy="369" r="2"/><circle cx="11" cy="303" r="2"/><circle cx="107" cy="368" r="2"/><circle cx="155" cy="4" r="2"/><circle cx="4" cy="305" r="2"/><circle cx="22" cy="124" r="2"/><circle cx="5" cy="117" r="2"/><circle cx="49" cy="92" r="2"/><circle cx="4" cy="368" r="2"/><circle cx="292" cy="287" r="2"/><circle cx="124" cy="15" r="2"/><circle cx="10" cy="313" r="2"/><circle cx="26" cy="41" r="2"/><circle cx="307" cy="38" r="2"/><circle cx="395" cy="12" r="2"/><circle cx="298" cy="31" r="2"/><circle cx="6" cy="92" r="2"/><circle cx="286" cy="6" r="2"/><circle cx="119" cy="360" r="2"/><circle cx="4" cy="97" r="2"/><circle cx="23" cy="92" r="2"/><circle cx="289" cy="89" r="2"/><circle cx="22" cy="13" r="2"/><circle cx="284" cy="7" r="2"/><circle cx="163" cy="396" r="2"/><circle cx="156" cy="368" r="2"/><circle cx="5" cy="124" r="2"/><circle cx="122" cy="4" r="2"/><circle cx="51" cy="33" r="2"/><circle cx="5" cy="42" r="2"/><circle cx="4" cy="371" r="2"/><circle cx="7" cy="115" r="2"/><circle cx="161" cy="4" r="2"/><circle cx="362" cy="371" r="2"/><circle cx="116" cy="100" r="2"/><circle cx="298" cy="123" r="2"/><circle cx="11" cy="372" r="2"/><circle cx="10" cy="116" r="2"/><circle cx="106" cy="302" r="2"/><circle cx="42" cy="127" r="2"/><circle cx="11" cy="279" r="2"/><circle cx="7" cy="39" r="2"/><circle cx="101" cy="286" r="2"/><circle cx="347" cy="389" r="2"/><circle cx="61" cy="4" r="2"/><circle cx="119" cy="118" r="2"/><circle cx="246" cy="4" r="2"/><circle cx="267" cy="6" r="2"/><circle cx="289" cy="390" r="2"/><circle cx="106" cy="91" r="2"/><circle cx="145" cy="7" r="2"/><circle cx="145" cy="360" r="2"/><circle cx="359" cy="283" r="2"/><circle cx="163" cy="389" r="2"/><circle cx="44" cy="38" r="2"/><circle cx="389" cy="4" r="2"/><circle cx="28" cy="287" r="2"/><circle cx="362" cy="310" r="2"/><circle cx="10" cy="305" r="2"/><circle cx="11" cy="100" r="2"/><circle cx="124" cy="395" r="2"/><circle cx="12" cy="39" r="2"/><circle cx="23" cy="31" r="2"/><circle cx="7" cy="42" r="2"/><circle cx="19" cy="30" r="2"/><circle cx="289" cy="6" r="2"/><circle cx="59" cy="4" r="2"/><circle cx="4" cy="360" r="2"/><circle cx="263" cy="372" r="2"/><circle cx="5" cy="304" r="2"/><circle cx="22" cy="305" r="2"/><circle cx="109" cy="89" r="2"/><circle cx="124" cy="30" r="2"/><circle cx="103" cy="313" r="2"/><circle cx="141" cy="302" r="2"/><circle cx="380" cy="6" r="2"/><circle cx="261" cy="389" r="2"/><circle cx="103" cy="38" r="2"/><circle cx="140" cy="6" r="2"/><circle cx="252" cy="287" r="2"/><circle cx="4" cy="100" r="2"/><circle cx="65" cy="286" r="2"/><circle cx="51" cy="5" r="2"/><circle cx="4" cy="31" r="2"/><circle cx="5" cy="12" r="2"/><circle cx="123" cy="363" r="2"/><circle cx="8" cy="116" r="2"/><circle cx="64" cy="127" r="2"/><circle cx="379" cy="41" r="2"/><circle cx="117" cy="98" r="2"/><circle cx="7" cy="92" r="2"/><circle cx="382" cy="287" r="2"/><circle cx="10" cy="34" r="2"/><circle cx="10" cy="88" r="2"/><circle cx="59" cy="7" r="2"/><circle cx="51" cy="395" r="2"/><circle cx="45" cy="127" r="2"/><circle cx="385" cy="41" r="2"/><circle cx="28" cy="89" r="2"/><circle cx="7" cy="4" r="2"/><circle cx="6" cy="278" r="2"/><circle cx="262" cy="303" r="2"/><circle cx="6" cy="31" r="2"/><circle cx="348" cy="284" r="2"/><circle cx="45" cy="287" r="2"/><circle cx="19" cy="5" r="2"/><circle cx="347" cy="361" r="2"/><circle cx="65" cy="89" r="2"/><circle cx="349" cy="116" r="2"/><circle cx="382" cy="4" r="2"/><circle cx="142" cy="16" r="2"/><circle cx="162" cy="371" r="2"/><circle cx="4" cy="276" r="2"/><circle cx="284" cy="97" r="2"/><circle cx="5" cy="98" r="2"/><circle cx="157" cy="115" r="2"/><circle cx="109" cy="33" r="2"/><circle cx="26" cy="15" r="2"/><circle cx="245" cy="4" r="2"/><circle cx="119" cy="276" r="2"/><circle cx="58" cy="89" r="2"/><circle cx="261" cy="98" r="2"/><circle cx="4" cy="284" r="2"/><circle cx="382" cy="395" r="2"/><circle cx="301" cy="4" r="2"/><circle cx="109" cy="12" r="2"/><circle cx="286" cy="6" r="2"/><circle cx="66" cy="368" r="2"/><circle cx="10" cy="302" r="2"/><circle cx="385" cy="90" r="2"/><circle cx="65" cy="4" r="2"/><circle cx="348" cy="7" r="2"/><circle cx="250" cy="284" r="2"/><circle cx="19" cy="395" r="2"/><circle cx="356" cy="126" r="2"/><circle cx="49" cy="97" r="2"/><circle cx="52" cy="276" r="2"/><circle cx="388" cy="5" r="2"/><circle cx="20" cy="100" r="2"/><circle cx="125" cy="279" r="2"/><circle cx="350" cy="313" r="2"/><circle cx="42" cy="88" r="2"/><circle cx="109" cy="372" r="2"/><circle cx="11" cy="7" r="2"/><circle cx="23" cy="284" r="2"/><circle cx="139" cy="89" r="2"/><circle cx="66" cy="278" r="2"/><circle cx="299" cy="4" r="2"/><circle cx="67" cy="4" r="2"/><circle cx="260" cy="98" r="2"/><circle cx="350" cy="278" r="2"/><circle cx="262" cy="97" r="2"/><circle cx="260" cy="16" r="2"/><circle cx="7" cy="119" r="2"/><circle cx="66" cy="115" r="2"/><circle cx="270" cy="115" r="2"/><circle cx="148" cy="278" r="2"/><circle cx="50" cy="305" r="2"/><circle cx="149" cy="124" r="2"/><circle cx="307" cy="276" r="2"/><circle cx="59" cy="15" r="2"/><circle cx="299" cy="387" r="2"/><circle cx="49" cy="123" r="2"/><circle cx="117" cy="286" r="2"/><circle cx="103" cy="283" r="2"/><circle cx="267" cy="30" r="2"/><circle cx="161" cy="304" r="2"/><circle cx="119" cy="386" r="2"/><circle cx="350" cy="15" r="2"/><circle cx="49" cy="363" r="2"/><circle cx="299" cy="13" r="2"/><circle cx="11" cy="7" r="2"/><circle cx="389" cy="4" r="2"/><circle cx="283" cy="287" r="2"/><circle cx="65" cy="4" r="2"/><circle cx="52" cy="389" r="2"/><circle cx="5" cy="89" r="2"/><circle cx="254" cy="15" r="2"/><circle cx="28" cy="100" r="2"/><circle cx="57" cy="275" r="2"/><circle cx="379" cy="4" r="2"/><circle cx="160" cy="42" r="2"/><circle cx="5" cy="278" r="2"/><circle cx="163" cy="302" r="2"/><circle cx="110" cy="4" r="2"/><circle cx="21" cy="302" r="2"/><circle cx="10" cy="276" r="2"/><circle cx="25" cy="116" r="2"/><circle cx="246" cy="34" r="2"/><circle cx="5" cy="389" r="2"/><circle cx="58" cy="310" r="2"/><circle cx="6" cy="276" r="2"/><circle cx="267" cy="117" r="2"/><circle cx="160" cy="389" r="2"/><circle cx="4" cy="123" r="2"/><circle cx="254" cy="361" r="2"/><circle cx="125" cy="275" r="2"/><circle cx="261" cy="7" r="2"/><circle cx="28" cy="5" r="2"/><circle cx="14" cy="4" r="2"/><circle cx="10" cy="276" r="2"/><circle cx="10" cy="13" r="2"/><circle cx="109" cy="38" r="2"/><circle cx="7" cy="6" r="2"/><circle cx="342" cy="115" r="2"/><circle cx="10" cy="15" r="2"/><circle cx="20" cy="386" r="2"/><circle cx="261" cy="33" r="2"/><circle cx="22" cy="310" r="2"/><circle cx="44" cy="97" r="2"/><circle cx="42" cy="42" r="2"/><circle cx="349" cy="126" r="2"/><circle cx="379" cy="42" r="2"/><circle cx="389" cy="284" r="2"/></g></svg>